<?xml version="1.0" encoding="UTF-8"?>
<svg width="17px" height="15px" viewBox="0 0 17 15" version="1.1" xmlns="http://www.w3.org/2000/svg" xmlns:xlink="http://www.w3.org/1999/xlink">
    <!-- Generator: Sketch 64 (93537) - https://sketch.com -->
    <title>数据使用icon24*24</title>
    <desc>Created with Sketch.</desc>
    <g id="Page-1" stroke="none" stroke-width="1" fill="none" fill-rule="evenodd">
        <g id="12.9″-iPad-Pro-Copy-8" transform="translate(-24.000000, -97.000000)">
            <g id="侧边" transform="translate(0.000000, 72.000000)">
                <g id="侧边状态1" transform="translate(0.000000, 8.000000)">
                    <g id="收藏订阅">
                        <g id="icon2" transform="translate(20.000000, 12.000000)">
                            <g id="数据使用icon24*24">
                                <rect id="矩形" fill="#D8D8D8" opacity="0" x="0" y="0" width="24" height="24"></rect>
                                <g id="人员" transform="translate(4.000000, 5.000000)">
                                    <path d="M5.87946744,7.53363717 C5.87946744,7.53363717 5.8789815,7.53315123 5.8789815,7.53268475 C5.8789815,7.53198501 5.87946744,7.53146022 5.87946744,7.53097428 C5.87946744,7.31493091 5.70014074,7.13960826 5.47832455,7.13960826 C4.02328261,7.13960826 2.83975754,5.90562447 2.83975754,4.38842268 C2.83975754,2.87153188 4.02328261,1.63717879 5.47832455,1.63717879 C5.70014074,1.63717879 5.87946744,1.46210882 5.87946744,1.2458322 C5.87946744,1.02951669 5.70014074,0.854485607 5.47832455,0.854485607 C3.58108856,0.854485607 2.03756894,2.43983386 2.03756894,4.38842268 C2.03756894,5.68804556 2.72603107,6.82315282 3.74638167,7.4370931 C1.57895054,8.18495497 0.011056781,10.2912176 0.011056781,12.7712556 C0.011056781,12.9875711 0.190422356,13.1626022 0.412277428,13.1626022 C0.633918698,13.1626022 0.813284255,12.9875711 0.813284255,12.7712556 C0.813284255,10.0990429 2.90588254,7.92548912 5.47832455,7.92548912 C5.70014074,7.92548912 5.87946744,7.75067183 5.87946744,7.53363717 Z" id="Path" fill="#94CFF3"></path>
                                    <path d="M12.1373587,7.70773529 C13.4378757,7.01134284 14.3226526,5.66514866 14.3226526,4.11801373 C14.3226526,1.85742057 12.4382645,0.0186125117 10.1221395,0.0186125117 C7.80583966,0.0186125117 5.92174315,1.85744002 5.92174315,4.11801373 C5.92174315,5.68048453 6.82280828,7.04059566 8.14423959,7.73187616 C5.39375373,8.55845831 3.38887507,11.0610045 3.38887507,14.012606 C3.38887507,14.2288827 3.56824064,14.4042442 3.78992078,14.4042442 C4.01148428,14.4042442 4.19084986,14.2288827 4.19084986,14.012606 C4.19084986,10.8212673 6.85204167,8.2244123 10.0924979,8.22318777 C10.1197099,8.22588953 10.1451336,8.21982515 10.1710238,8.21640421 C10.2074878,8.22318777 10.2446516,8.22707518 10.2831953,8.22318777 C13.5271892,8.2244123 16.1911411,10.8212479 16.1911411,14.012606 C16.1911411,14.2288827 16.3707204,14.4042442 16.5926144,14.4042442 C16.8147416,14.4042442 16.9940683,14.2288827 16.9940683,14.012606 C16.9940683,11.0270868 14.9393723,8.50485079 12.1373587,7.70773529 Z M10.1221395,7.43392483 C8.24811144,7.43392483 6.72369847,5.94626743 6.72369847,4.11801371 C6.72369847,2.2889242 8.24811144,0.801286244 10.1221395,0.801286244 C11.9959732,0.801286244 13.5204251,2.28894365 13.5204251,4.11801371 C13.5204251,5.94628688 11.9959732,7.43392483 10.1221395,7.43392483 Z" id="Shape" fill="#FFFFFF" fill-rule="nonzero"></path>
                                </g>
                            </g>
                        </g>
                    </g>
                </g>
            </g>
        </g>
    </g>
</svg>