<?xml version="1.0" encoding="UTF-8"?>
<svg width="16px" height="16px" viewBox="0 0 16 16" version="1.1" xmlns="http://www.w3.org/2000/svg" xmlns:xlink="http://www.w3.org/1999/xlink">
    <!-- Generator: Sketch 64 (93537) - https://sketch.com -->
    <title>应用管理icon24*24</title>
    <desc>Created with Sketch.</desc>
    <g id="Page-1" stroke="none" stroke-width="1" fill="none" fill-rule="evenodd">
        <g id="12.9″-iPad-Pro-Copy-8" transform="translate(-24.000000, -208.000000)">
            <g id="侧边" transform="translate(0.000000, 72.000000)">
                <g id="侧边状态3" transform="translate(0.000000, 120.000000)">
                    <g id="应用管理">
                        <g id="icon3" transform="translate(20.000000, 12.000000)">
                            <g id="应用管理icon24*24">
                                <rect id="矩形" fill="#D8D8D8" opacity="0" x="0" y="0" width="24" height="24"></rect>
                                <g id="Group-6" transform="translate(4.000000, 4.000000)">
                                    <path d="M1.82398933,2.624 C1.418656,2.624 1.08798933,2.95466667 1.08798933,3.36 L1.08798933,14.1333333 C1.08798933,14.5386667 1.418656,14.8693333 1.82398933,14.8693333 L13.9413227,14.8693333 C14.346656,14.8693333 14.6773227,14.5386667 14.6773227,14.1333333 L14.6773227,3.36 C14.6773227,2.95466667 14.346656,2.624 13.9413227,2.624 L1.82398933,2.624 Z M13.9413227,15.9573333 L1.82398933,15.9573333 C0.821322667,15.9573333 -1.06666667e-05,15.136 -1.06666667e-05,14.1333333 L-1.06666667e-05,3.36 C-1.06666667e-05,2.35733333 0.821322667,1.536 1.82398933,1.536 L13.9413227,1.536 C14.9439893,1.536 15.7653227,2.35733333 15.7653227,3.36 L15.7653227,14.1333333 C15.7653227,15.1466667 14.9439893,15.9573333 13.9413227,15.9573333 L13.9413227,15.9573333 Z" id="Fill-1" fill="#FFFFFF"></path>
                                    <path d="M12.5013333,11.9467093 L4.33066667,11.9467093 C4.032,11.9467093 3.78666667,11.7012693 3.78666667,11.4026027 C3.78666667,11.1040427 4.032,10.8587093 4.33066667,10.8587093 L12.5013333,10.8587093 C12.8,10.8587093 13.0453333,11.1040427 13.0453333,11.4026027 C13.0453333,11.7012693 12.8,11.9467093 12.5013333,11.9467093" id="Path" fill="#94CFF3"></path>
                                    <path d="M12.5013333,8.67204267 L7.904,8.67204267 C7.60533333,8.67204267 7.36,8.42670933 7.36,8.12804267 C7.36,7.82926933 7.60533333,7.58404267 7.904,7.58404267 L12.5013333,7.58404267 C12.8,7.58404267 13.0453333,7.82926933 13.0453333,8.12804267 C13.0453333,8.42670933 12.8,8.67204267 12.5013333,8.67204267" id="Path" fill="#94CFF3"></path>
                                    <path d="M11.2106667,4.06404267 C10.912,4.06404267 10.6666667,3.81870933 10.6666667,3.52004267 L10.6666667,0.544042667 C10.6666667,0.245376 10.912,4.26666667e-05 11.2106667,4.26666667e-05 C11.5093333,4.26666667e-05 11.7546667,0.245376 11.7546667,0.544042667 L11.7546667,3.52004267 C11.7546667,3.81870933 11.5093333,4.06404267 11.2106667,4.06404267" id="Path" fill="#FFFFFF"></path>
                                    <path d="M4.55466667,4.06404267 C4.256,4.06404267 4.01066667,3.81870933 4.01066667,3.52004267 L4.01066667,0.544042667 C4.01066667,0.245376 4.256,4.26666667e-05 4.55466667,4.26666667e-05 C4.85333333,4.26666667e-05 5.09866667,0.245376 5.09866667,0.544042667 L5.09866667,3.52004267 C5.09866667,3.81870933 4.85333333,4.06404267 4.55466667,4.06404267" id="Path" fill="#FFFFFF"></path>
                                </g>
                            </g>
                        </g>
                    </g>
                </g>
            </g>
        </g>
    </g>
</svg>