<?xml version="1.0" encoding="UTF-8"?>
<svg width="16px" height="16px" viewBox="0 0 16 16" version="1.1" 
    xmlns="http://www.w3.org/2000/svg" 
    xmlns:xlink="http://www.w3.org/1999/xlink">
    <!-- Generator: Sketch 64 (93537) - https://sketch.com -->
    <title>收藏订阅icon24*24</title>
    <desc>Created with Sketch.</desc>
    <g id="Page-1" stroke="none" stroke-width="1" fill="none" fill-rule="evenodd">
        <g id="12.9″-iPad-Pro-Copy-8" transform="translate(-24.000000, -152.000000)">
            <g id="侧边" transform="translate(0.000000, 72.000000)">
                <g id="侧边状态2" transform="translate(0.000000, 64.000000)">
                    <g id="数据使用">
                        <g id="icon1" transform="translate(20.000000, 12.000000)">
                            <g id="收藏订阅icon24*24">
                                <rect id="矩形" fill="#D8D8D8" opacity="0" x="0" y="0" width="24" height="24"></rect>
                                <g id="Group-13" transform="translate(4.000000, 4.000000)">
                                    <path d="M6.47689922,6.60094264 L3.69773643,6.60094264 C2.1495814,6.60094264 0.897860465,5.33533023 0.918449612,3.78271008 C0.939162791,2.28515969 2.16111628,1.0632062 3.65866667,1.04261705 C5.21128682,1.02190388 6.47689922,2.27362481 6.47689922,3.82177984 L6.47689922,6.60094264 Z M2.87082171,0.213345736 C1.62133333,0.484477519 0.360310078,1.74537674 0.0893023256,2.99486512 C-0.429767442,5.39734574 1.38468217,7.51976434 3.69773643,7.51976434 L7.3955969,7.51976434 L7.3955969,7.36348527 L7.3955969,6.60094264 L7.3955969,3.66326822 L7.39113178,3.66326822 C7.29910078,1.42835349 5.22058915,-0.294189147 2.87082171,0.213345736 L2.87082171,0.213345736 Z" id="Fill-1" fill="#FFFFFF"></path>
                                    <path d="M9.22169302,3.82175504 C9.22169302,2.27372403 10.4871814,1.02187907 12.0399256,1.04259225 C13.537476,1.0631814 14.7593054,2.28513488 14.7800186,3.78268527 C14.8007318,5.33542946 13.5490109,6.60091783 12.0008558,6.60091783 L9.22169302,6.60091783 L9.22169302,3.82175504 Z M15.6092899,2.99484031 C15.3381581,1.74535194 14.0771349,0.484452713 12.8277705,0.21332093 C10.4802357,-0.294213953 8.39936744,1.42845271 8.30746047,3.6656 L8.30299535,3.6656 L8.30299535,6.60091783 L8.30299535,7.3635845 L8.30299535,7.51973953 L12.0008558,7.51973953 C14.3115535,7.51973953 16.1283597,5.39744496 15.6092899,2.99484031 L15.6092899,2.99484031 Z" id="Fill-4" fill="#FFFFFF"></path>
                                    <path d="M6.47689922,12.1364341 C6.47689922,13.6844651 5.21128682,14.9363101 3.65866667,14.9155969 C2.16111628,14.8948837 0.939162791,13.6730543 0.918449612,12.1753798 C0.897860465,10.6227597 2.1495814,9.35727132 3.69773643,9.35727132 L6.47689922,9.35727132 L6.47689922,12.1364341 Z M0.0893023256,12.9633488 C0.360310078,14.2127132 1.62133333,15.4737364 2.87082171,15.7448682 C5.21823256,16.2525271 7.29910078,14.5297364 7.39113178,12.2925891 L7.3955969,12.2925891 L7.3955969,9.35727132 L7.3955969,8.59460465 L7.3955969,8.43857364 L3.69773643,8.43857364 C1.38468217,8.43857364 -0.429767442,10.5607442 0.0893023256,12.9633488 L0.0893023256,12.9633488 Z" id="Fill-7" fill="#FFFFFF"></path>
                                    <path d="M14.7800806,12.1754419 C14.7593674,13.6729922 13.537414,14.8949457 12.0398636,14.9156589 C10.4872434,14.9363721 9.22175504,13.6845271 9.22175504,12.1364961 L9.22175504,9.3572093 L12.0009178,9.3572093 C13.5489488,9.3572093 14.8007938,10.6226977 14.7800806,12.1754419 M12.0009178,8.43851163 L8.30293333,8.43851163 L8.30293333,8.59466667 L8.30293333,9.3572093 L8.30293333,12.2925271 L8.30739845,12.2925271 C8.40166202,14.5296744 10.4802977,16.2524651 12.8278326,15.7448062 C14.0771969,15.4737984 15.3382202,14.2127752 15.6093519,12.9634109 C16.1282977,10.5606822 14.3116155,8.43851163 12.0009178,8.43851163" id="Fill-10" fill="#94CFF3"></path>
                                </g>
                            </g>
                        </g>
                    </g>
                </g>
            </g>
        </g>
    </g>
</svg>